<?xml version="1.0" encoding="UTF-8" standalone="no"?>
<!-- Created with Inkscape (http://www.inkscape.org/) -->

<svg
   xmlns:dc="http://purl.org/dc/elements/1.1/"
   xmlns:cc="http://creativecommons.org/ns#"
   xmlns:rdf="http://www.w3.org/1999/02/22-rdf-syntax-ns#"
   xmlns:svg="http://www.w3.org/2000/svg"
   xmlns="http://www.w3.org/2000/svg"
   xmlns:xlink="http://www.w3.org/1999/xlink"
   xmlns:sodipodi="http://sodipodi.sourceforge.net/DTD/sodipodi-0.dtd"
   xmlns:inkscape="http://www.inkscape.org/namespaces/inkscape"
   width="72"
   height="72"
   id="svg2"
   version="1.1"
   inkscape:version="0.47 r22583"
   inkscape:export-filename="/home/pcon/RedHatPortalAndroid/res/drawable-mdpi/icon.png"
   inkscape:export-xdpi="60"
   inkscape:export-ydpi="60"
   sodipodi:docname="New document 1">
  <defs
     id="defs4">
    <linearGradient
       id="linearGradient4040">
      <stop
         style="stop-color:#ff2d2d;stop-opacity:1;"
         offset="0"
         id="stop4042" />
      <stop
         style="stop-color:#cc0000;stop-opacity:0;"
         offset="1"
         id="stop4044" />
    </linearGradient>
    <linearGradient
       id="linearGradient4023">
      <stop
         style="stop-color:#490000;stop-opacity:1;"
         offset="0"
         id="stop4025" />
      <stop
         style="stop-color:#cc0000;stop-opacity:0;"
         offset="1"
         id="stop4027" />
    </linearGradient>
    <linearGradient
       id="linearGradient3848">
      <stop
         style="stop-color:#510000;stop-opacity:1;"
         offset="0"
         id="stop3850" />
      <stop
         style="stop-color:#000000;stop-opacity:0;"
         offset="1"
         id="stop3852" />
    </linearGradient>
    <linearGradient
       id="linearGradient3840">
      <stop
         style="stop-color:#cc0000;stop-opacity:1;"
         offset="0"
         id="stop3842" />
      <stop
         style="stop-color:#cc0000;stop-opacity:0;"
         offset="1"
         id="stop3844" />
    </linearGradient>
    <linearGradient
       inkscape:collect="always"
       id="linearGradient3754">
      <stop
         style="stop-color:#000000;stop-opacity:1;"
         offset="0"
         id="stop3756" />
      <stop
         style="stop-color:#000000;stop-opacity:0;"
         offset="1"
         id="stop3758" />
    </linearGradient>
    <inkscape:perspective
       sodipodi:type="inkscape:persp3d"
       inkscape:vp_x="0 : 526.18109 : 1"
       inkscape:vp_y="0 : 1000 : 0"
       inkscape:vp_z="744.09448 : 526.18109 : 1"
       inkscape:persp3d-origin="372.04724 : 350.78739 : 1"
       id="perspective10" />
    <inkscape:perspective
       id="perspective3600"
       inkscape:persp3d-origin="0.5 : 0.33333333 : 1"
       inkscape:vp_z="1 : 0.5 : 1"
       inkscape:vp_y="0 : 1000 : 0"
       inkscape:vp_x="0 : 0.5 : 1"
       sodipodi:type="inkscape:persp3d" />
    <inkscape:perspective
       id="perspective3627"
       inkscape:persp3d-origin="0.5 : 0.33333333 : 1"
       inkscape:vp_z="1 : 0.5 : 1"
       inkscape:vp_y="0 : 1000 : 0"
       inkscape:vp_x="0 : 0.5 : 1"
       sodipodi:type="inkscape:persp3d" />
    <inkscape:perspective
       id="perspective3627-1"
       inkscape:persp3d-origin="0.5 : 0.33333333 : 1"
       inkscape:vp_z="1 : 0.5 : 1"
       inkscape:vp_y="0 : 1000 : 0"
       inkscape:vp_x="0 : 0.5 : 1"
       sodipodi:type="inkscape:persp3d" />
    <inkscape:perspective
       id="perspective3627-7"
       inkscape:persp3d-origin="0.5 : 0.33333333 : 1"
       inkscape:vp_z="1 : 0.5 : 1"
       inkscape:vp_y="0 : 1000 : 0"
       inkscape:vp_x="0 : 0.5 : 1"
       sodipodi:type="inkscape:persp3d" />
    <inkscape:perspective
       id="perspective3627-3"
       inkscape:persp3d-origin="0.5 : 0.33333333 : 1"
       inkscape:vp_z="1 : 0.5 : 1"
       inkscape:vp_y="0 : 1000 : 0"
       inkscape:vp_x="0 : 0.5 : 1"
       sodipodi:type="inkscape:persp3d" />
    <inkscape:perspective
       id="perspective3627-2"
       inkscape:persp3d-origin="0.5 : 0.33333333 : 1"
       inkscape:vp_z="1 : 0.5 : 1"
       inkscape:vp_y="0 : 1000 : 0"
       inkscape:vp_x="0 : 0.5 : 1"
       sodipodi:type="inkscape:persp3d" />
    <inkscape:perspective
       id="perspective3627-39"
       inkscape:persp3d-origin="0.5 : 0.33333333 : 1"
       inkscape:vp_z="1 : 0.5 : 1"
       inkscape:vp_y="0 : 1000 : 0"
       inkscape:vp_x="0 : 0.5 : 1"
       sodipodi:type="inkscape:persp3d" />
    <inkscape:perspective
       id="perspective3627-4"
       inkscape:persp3d-origin="0.5 : 0.33333333 : 1"
       inkscape:vp_z="1 : 0.5 : 1"
       inkscape:vp_y="0 : 1000 : 0"
       inkscape:vp_x="0 : 0.5 : 1"
       sodipodi:type="inkscape:persp3d" />
    <inkscape:perspective
       id="perspective3740"
       inkscape:persp3d-origin="0.5 : 0.33333333 : 1"
       inkscape:vp_z="1 : 0.5 : 1"
       inkscape:vp_y="0 : 1000 : 0"
       inkscape:vp_x="0 : 0.5 : 1"
       sodipodi:type="inkscape:persp3d" />
    <radialGradient
       inkscape:collect="always"
       xlink:href="#linearGradient3754"
       id="radialGradient3760"
       cx="69.668724"
       cy="1055.4738"
       fx="69.668724"
       fy="1055.4738"
       r="32.784798"
       gradientTransform="matrix(0,-1.3403068,1.8872107,0,-1922.2327,1138.0372)"
       gradientUnits="userSpaceOnUse" />
    <inkscape:perspective
       id="perspective3776"
       inkscape:persp3d-origin="0.5 : 0.33333333 : 1"
       inkscape:vp_z="1 : 0.5 : 1"
       inkscape:vp_y="0 : 1000 : 0"
       inkscape:vp_x="0 : 0.5 : 1"
       sodipodi:type="inkscape:persp3d" />
    <inkscape:perspective
       id="perspective3801"
       inkscape:persp3d-origin="0.5 : 0.33333333 : 1"
       inkscape:vp_z="1 : 0.5 : 1"
       inkscape:vp_y="0 : 1000 : 0"
       inkscape:vp_x="0 : 0.5 : 1"
       sodipodi:type="inkscape:persp3d" />
    <inkscape:perspective
       id="perspective3826"
       inkscape:persp3d-origin="0.5 : 0.33333333 : 1"
       inkscape:vp_z="1 : 0.5 : 1"
       inkscape:vp_y="0 : 1000 : 0"
       inkscape:vp_x="0 : 0.5 : 1"
       sodipodi:type="inkscape:persp3d" />
    <radialGradient
       inkscape:collect="always"
       xlink:href="#linearGradient3848"
       id="radialGradient3854"
       cx="69.671875"
       cy="1050.0341"
       fx="69.671875"
       fy="1050.0341"
       r="33.671875"
       gradientTransform="matrix(-1.029621e-6,-1.6426906,1.9999988,-1.253578e-6,-2030.395,1158.469)"
       gradientUnits="userSpaceOnUse" />
    <inkscape:perspective
       id="perspective3899"
       inkscape:persp3d-origin="0.5 : 0.33333333 : 1"
       inkscape:vp_z="1 : 0.5 : 1"
       inkscape:vp_y="0 : 1000 : 0"
       inkscape:vp_x="0 : 0.5 : 1"
       sodipodi:type="inkscape:persp3d" />
    <inkscape:perspective
       id="perspective3921"
       inkscape:persp3d-origin="0.5 : 0.33333333 : 1"
       inkscape:vp_z="1 : 0.5 : 1"
       inkscape:vp_y="0 : 1000 : 0"
       inkscape:vp_x="0 : 0.5 : 1"
       sodipodi:type="inkscape:persp3d" />
    <filter
       inkscape:collect="always"
       id="filter3959">
      <feGaussianBlur
         inkscape:collect="always"
         stdDeviation="0.6190264"
         id="feGaussianBlur3961" />
    </filter>
    <inkscape:perspective
       id="perspective3971"
       inkscape:persp3d-origin="0.5 : 0.33333333 : 1"
       inkscape:vp_z="1 : 0.5 : 1"
       inkscape:vp_y="0 : 1000 : 0"
       inkscape:vp_x="0 : 0.5 : 1"
       sodipodi:type="inkscape:persp3d" />
    <radialGradient
       inkscape:collect="always"
       xlink:href="#linearGradient3848-7"
       id="radialGradient3854-6"
       cx="69.671875"
       cy="1050.0341"
       fx="69.671875"
       fy="1050.0341"
       r="33.671875"
       gradientTransform="matrix(-1.029621e-6,-1.6426906,1.9999988,-1.253578e-6,-2030.395,1158.469)"
       gradientUnits="userSpaceOnUse" />
    <linearGradient
       id="linearGradient3848-7">
      <stop
         style="stop-color:#ff2d2d;stop-opacity:1;"
         offset="0"
         id="stop3850-9" />
      <stop
         style="stop-color:#000000;stop-opacity:0;"
         offset="1"
         id="stop3852-5" />
    </linearGradient>
    <radialGradient
       r="33.671875"
       fy="1016.3622"
       fx="98.620087"
       cy="1016.3622"
       cx="98.620087"
       gradientTransform="matrix(2.4038329e-6,1.4122462,-1.9999988,3.4042671e-6,2035.051,857.18612)"
       gradientUnits="userSpaceOnUse"
       id="radialGradient3980"
       xlink:href="#linearGradient3848-7"
       inkscape:collect="always" />
    <inkscape:perspective
       id="perspective4009"
       inkscape:persp3d-origin="0.5 : 0.33333333 : 1"
       inkscape:vp_z="1 : 0.5 : 1"
       inkscape:vp_y="0 : 1000 : 0"
       inkscape:vp_x="0 : 0.5 : 1"
       sodipodi:type="inkscape:persp3d" />
    <radialGradient
       inkscape:collect="always"
       xlink:href="#linearGradient4023"
       id="radialGradient4029"
       cx="69.671867"
       cy="1049.4595"
       fx="69.671867"
       fy="1049.4595"
       r="33.671875"
       gradientTransform="matrix(-1.3824945e-6,-1.6768152,1.9999999,-1.6489526e-6,-2029.2468,1160.847)"
       gradientUnits="userSpaceOnUse" />
    <inkscape:perspective
       id="perspective4009-2"
       inkscape:persp3d-origin="0.5 : 0.33333333 : 1"
       inkscape:vp_z="1 : 0.5 : 1"
       inkscape:vp_y="0 : 1000 : 0"
       inkscape:vp_x="0 : 0.5 : 1"
       sodipodi:type="inkscape:persp3d" />
    <radialGradient
       inkscape:collect="always"
       xlink:href="#linearGradient4040"
       id="radialGradient4046"
       cx="2.3281252"
       cy="990.69666"
       fx="2.3281252"
       fy="990.69666"
       r="33.671875"
       gradientTransform="matrix(0.00768012,1.4631368,-1.9999999,0.01049816,1983.7035,980.94431)"
       gradientUnits="userSpaceOnUse" />
  </defs>
  <sodipodi:namedview
     id="base"
     pagecolor="#ffffff"
     bordercolor="#666666"
     borderopacity="1.0"
     inkscape:pageopacity="0.0"
     inkscape:pageshadow="2"
     inkscape:zoom="5.6568542"
     inkscape:cx="60.128542"
     inkscape:cy="38.303119"
     inkscape:document-units="px"
     inkscape:current-layer="layer1"
     showgrid="false"
     showguides="true"
     inkscape:guide-bbox="true"
     inkscape:object-nodes="true"
     inkscape:window-width="1680"
     inkscape:window-height="977"
     inkscape:window-x="1280"
     inkscape:window-y="25"
     inkscape:window-maximized="1" />
  <metadata
     id="metadata7">
    <rdf:RDF>
      <cc:Work
         rdf:about="">
        <dc:format>image/svg+xml</dc:format>
        <dc:type
           rdf:resource="http://purl.org/dc/dcmitype/StillImage" />
        <dc:title></dc:title>
      </cc:Work>
    </rdf:RDF>
  </metadata>
  <g
     inkscape:label="Layer 1"
     inkscape:groupmode="layer"
     id="layer1"
     transform="translate(0,-980.36218)">
    <path
       style="opacity:0.59360729;color:#000000;fill:#000000;fill-opacity:1;fill-rule:nonzero;stroke:none;stroke-width:0.5;marker:none;visibility:visible;display:inline;overflow:visible;filter:url(#filter3959);enable-background:accumulate"
       d="m 23.203125,988.55687 c -1.460893,0 -2.65625,2.1256 -2.65625,3.3678 l 0,3.59375 -3.71875,0 0,49.49998 40.59375,0 0,-49.49998 -3.34375,0 0,-3.59375 c 0,-1.2422 -1.195357,-3.3678 -2.65625,-3.3678 l -28.21875,0 z m 3.90625,3.14905 20.40625,0 c 1.229075,0 2.21875,0.82992 2.21875,1.875 l 0,1.9375 -24.84375,0 0,-1.9375 c 0,-1.04508 0.989675,-1.875 2.21875,-1.875 z m -16.875,3.8125 c -3.7578161,0 -6.78125,3.38232 -6.78125,7.56248 l 0,34.4062 c 0,4.1803 3.0234339,7.5313 6.78125,7.5313 l 8.71875,0 -0.75,-49.49998 -7.96875,0 z m 45.6875,0 0,49.49998 8.09375,0 c 3.757816,0 6.78125,-3.351 6.78125,-7.5313 l 0,-34.4062 c 0,-4.18016 -3.023434,-7.56248 -6.78125,-7.56248 l -8.09375,0 z"
       id="rect3764-27-6"
       sodipodi:nodetypes="cccccccccccccccccccccccccccccccc" />
    <path
       style="color:#000000;fill:#000000;fill-opacity:1;fill-rule:nonzero;stroke:none;stroke-width:0.50000000000000000;marker:none;visibility:visible;display:inline;overflow:visible;enable-background:accumulate"
       d="m 22.078125,987.55687 c -1.460893,0 -2.65625,2.1256 -2.65625,3.3678 l 0,3.59375 -3.71875,0 0,49.49998 40.59375,0 0,-49.49998 -3.34375,0 0,-3.59375 c 0,-1.2422 -1.195357,-3.3678 -2.65625,-3.3678 l -28.21875,0 z m 3.90625,3.14905 20.40625,0 c 1.229075,0 2.21875,0.82992 2.21875,1.875 l 0,1.9375 -24.84375,0 0,-1.9375 c 0,-1.04508 0.989675,-1.875 2.21875,-1.875 z m -16.875,3.8125 c -3.7578161,0 -6.78125,3.38232 -6.78125,7.56248 l 0,34.4062 c 0,4.1803 3.0234339,7.5313 6.78125,7.5313 l 8.71875,0 -0.75,-49.49998 -7.96875,0 z m 45.6875,0 0,49.49998 8.09375,0 c 3.757816,0 6.78125,-3.351 6.78125,-7.5313 l 0,-34.4062 c 0,-4.18016 -3.023434,-7.56248 -6.78125,-7.56248 l -8.09375,0 z"
       id="rect3764-27"
       sodipodi:nodetypes="cccccccccccccccccccccccccccccccc" />
    <path
       style="color:#000000;fill:#cc0000;fill-opacity:1;fill-rule:nonzero;stroke:none;stroke-width:0.5;marker:none;visibility:visible;display:inline;overflow:visible;enable-background:accumulate"
       d="m 22.078125,987.55687 c -1.460893,0 -2.65625,2.1256 -2.65625,3.3678 l 0,3.59375 -3.71875,0 0,49.49998 40.59375,0 0,-49.49998 -3.34375,0 0,-3.59375 c 0,-1.2422 -1.195357,-3.3678 -2.65625,-3.3678 l -28.21875,0 z m 3.90625,3.14905 20.40625,0 c 1.229075,0 2.21875,0.82992 2.21875,1.875 l 0,1.9375 -24.84375,0 0,-1.9375 c 0,-1.04508 0.989675,-1.875 2.21875,-1.875 z m -16.875,3.8125 c -3.7578161,0 -6.78125,3.38232 -6.78125,7.56248 l 0,34.4062 c 0,4.1803 3.0234339,7.5313 6.78125,7.5313 l 1.21875,0 0,-49.49998 -1.21875,0 z m 52.5625,0 0,49.49998 1.21875,0 c 3.757816,0 6.78125,-3.351 6.78125,-7.5313 l 0,-34.4062 c 0,-4.18016 -3.023434,-7.56248 -6.78125,-7.56248 l -1.21875,0 z"
       id="rect3764"
       sodipodi:nodetypes="cccccccccccccccccccccccccccccccc" />
    <path
       style="color:#000000;fill:url(#radialGradient4029);fill-opacity:1;fill-rule:nonzero;stroke:none;stroke-width:0.50000000000000000;marker:none;visibility:visible;display:inline;overflow:visible;enable-background:accumulate"
       d="m 22.078125,987.55687 c -1.460893,0 -2.65625,2.1256 -2.65625,3.3678 l 0,3.59375 -3.71875,0 0,49.49998 40.59375,0 0,-49.49998 -3.34375,0 0,-3.59375 c 0,-1.2422 -1.195357,-3.3678 -2.65625,-3.3678 l -28.21875,0 z m 3.90625,3.14905 20.40625,0 c 1.229075,0 2.21875,0.82992 2.21875,1.875 l 0,1.9375 -24.84375,0 0,-1.9375 c 0,-1.04508 0.989675,-1.875 2.21875,-1.875 z m -16.875,3.8125 c -3.7578161,0 -6.78125,3.38232 -6.78125,7.56248 l 0,34.4062 c 0,4.1803 3.0234339,7.5313 6.78125,7.5313 l 1.21875,0 0,-49.49998 -1.21875,0 z m 52.5625,0 0,49.49998 1.21875,0 c 3.757816,0 6.78125,-3.351 6.78125,-7.5313 l 0,-34.4062 c 0,-4.18016 -3.023434,-7.56248 -6.78125,-7.56248 l -1.21875,0 z"
       id="rect3764-6"
       sodipodi:nodetypes="cccccccccccccccccccccccccccccccc" />
    <path
       style="color:#000000;fill:url(#radialGradient4046);fill-opacity:1;fill-rule:nonzero;stroke:none;stroke-width:0.50000000000000000;marker:none;visibility:visible;display:inline;overflow:visible;enable-background:accumulate"
       d="m 22.078125,987.55687 c -1.460893,0 -2.65625,2.1256 -2.65625,3.3678 l 0,3.59375 -3.71875,0 0,49.49998 40.59375,0 0,-49.49998 -3.34375,0 0,-3.59375 c 0,-1.2422 -1.195357,-3.3678 -2.65625,-3.3678 l -28.21875,0 z m 3.90625,3.14905 20.40625,0 c 1.229075,0 2.21875,0.82992 2.21875,1.875 l 0,1.9375 -24.84375,0 0,-1.9375 c 0,-1.04508 0.989675,-1.875 2.21875,-1.875 z m -16.875,3.8125 c -3.7578161,0 -6.78125,3.38232 -6.78125,7.56248 l 0,34.4062 c 0,4.1803 3.0234339,7.5313 6.78125,7.5313 l 1.21875,0 0,-49.49998 -1.21875,0 z m 52.5625,0 0,49.49998 1.21875,0 c 3.757816,0 6.78125,-3.351 6.78125,-7.5313 l 0,-34.4062 c 0,-4.18016 -3.023434,-7.56248 -6.78125,-7.56248 l -1.21875,0 z"
       id="rect3764-4"
       sodipodi:nodetypes="cccccccccccccccccccccccccccccccc" />
  </g>
</svg>
