<?xml version="1.0" encoding="UTF-8" standalone="no"?>
<!-- Created with Inkscape (http://www.inkscape.org/) -->

<svg
   xmlns:dc="http://purl.org/dc/elements/1.1/"
   xmlns:cc="http://creativecommons.org/ns#"
   xmlns:rdf="http://www.w3.org/1999/02/22-rdf-syntax-ns#"
   xmlns:svg="http://www.w3.org/2000/svg"
   xmlns="http://www.w3.org/2000/svg"
   xmlns:xlink="http://www.w3.org/1999/xlink"
   xmlns:sodipodi="http://sodipodi.sourceforge.net/DTD/sodipodi-0.dtd"
   xmlns:inkscape="http://www.inkscape.org/namespaces/inkscape"
   width="24"
   height="38"
   id="svg2"
   version="1.1"
   inkscape:version="0.47 r22583"
   sodipodi:docname="notification_icon.svg"
   inkscape:export-filename="/home/pcon/RedHatPortalAndroid/res/drawable-ldpi/notification_icon.png"
   inkscape:export-xdpi="45"
   inkscape:export-ydpi="45">
  <defs
     id="defs4">
    <linearGradient
       id="linearGradient3724">
      <stop
         style="stop-color:#828282;stop-opacity:1;"
         offset="0"
         id="stop3726" />
      <stop
         style="stop-color:#919191;stop-opacity:1;"
         offset="1"
         id="stop3728" />
    </linearGradient>
    <inkscape:perspective
       sodipodi:type="inkscape:persp3d"
       inkscape:vp_x="0 : 526.18109 : 1"
       inkscape:vp_y="0 : 1000 : 0"
       inkscape:vp_z="744.09448 : 526.18109 : 1"
       inkscape:persp3d-origin="372.04724 : 350.78739 : 1"
       id="perspective10" />
    <inkscape:perspective
       id="perspective3623"
       inkscape:persp3d-origin="0.5 : 0.33333333 : 1"
       inkscape:vp_z="1 : 0.5 : 1"
       inkscape:vp_y="0 : 1000 : 0"
       inkscape:vp_x="0 : 0.5 : 1"
       sodipodi:type="inkscape:persp3d" />
    <inkscape:perspective
       id="perspective3623-0"
       inkscape:persp3d-origin="0.5 : 0.33333333 : 1"
       inkscape:vp_z="1 : 0.5 : 1"
       inkscape:vp_y="0 : 1000 : 0"
       inkscape:vp_x="0 : 0.5 : 1"
       sodipodi:type="inkscape:persp3d" />
    <inkscape:perspective
       id="perspective3656"
       inkscape:persp3d-origin="0.5 : 0.33333333 : 1"
       inkscape:vp_z="1 : 0.5 : 1"
       inkscape:vp_y="0 : 1000 : 0"
       inkscape:vp_x="0 : 0.5 : 1"
       sodipodi:type="inkscape:persp3d" />
    <inkscape:perspective
       id="perspective3682"
       inkscape:persp3d-origin="0.5 : 0.33333333 : 1"
       inkscape:vp_z="1 : 0.5 : 1"
       inkscape:vp_y="0 : 1000 : 0"
       inkscape:vp_x="0 : 0.5 : 1"
       sodipodi:type="inkscape:persp3d" />
    <linearGradient
       inkscape:collect="always"
       xlink:href="#linearGradient3724"
       id="linearGradient3730"
       x1="12"
       y1="31"
       x2="12"
       y2="8"
       gradientUnits="userSpaceOnUse" />
    <inkscape:perspective
       id="perspective3740"
       inkscape:persp3d-origin="0.5 : 0.33333333 : 1"
       inkscape:vp_z="1 : 0.5 : 1"
       inkscape:vp_y="0 : 1000 : 0"
       inkscape:vp_x="0 : 0.5 : 1"
       sodipodi:type="inkscape:persp3d" />
    <linearGradient
       inkscape:collect="always"
       xlink:href="#linearGradient3724-3"
       id="linearGradient3730-4"
       x1="12"
       y1="31"
       x2="12"
       y2="8"
       gradientUnits="userSpaceOnUse" />
    <linearGradient
       id="linearGradient3724-3">
      <stop
         style="stop-color:#828282;stop-opacity:1;"
         offset="0"
         id="stop3726-0" />
      <stop
         style="stop-color:#919191;stop-opacity:1;"
         offset="1"
         id="stop3728-7" />
    </linearGradient>
  </defs>
  <sodipodi:namedview
     id="base"
     pagecolor="#ffffff"
     bordercolor="#666666"
     borderopacity="1.0"
     inkscape:pageopacity="0.0"
     inkscape:pageshadow="2"
     inkscape:zoom="1"
     inkscape:cx="-70.879995"
     inkscape:cy="65.527532"
     inkscape:document-units="px"
     inkscape:current-layer="layer1"
     showgrid="false"
     showguides="false"
     inkscape:guide-bbox="true"
     inkscape:window-width="1680"
     inkscape:window-height="977"
     inkscape:window-x="1280"
     inkscape:window-y="25"
     inkscape:window-maximized="1">
    <sodipodi:guide
       orientation="0,1"
       position="0,7"
       id="guide2816" />
    <sodipodi:guide
       orientation="0,1"
       position="0,31"
       id="guide2818" />
    <sodipodi:guide
       orientation="1,0"
       position="2,30.007844"
       id="guide3594" />
    <sodipodi:guide
       orientation="1,0"
       position="22,26.870058"
       id="guide3596" />
    <inkscape:grid
       type="xygrid"
       id="grid3598"
       empspacing="5"
       visible="true"
       enabled="true"
       snapvisiblegridlinesonly="true" />
  </sodipodi:namedview>
  <metadata
     id="metadata7">
    <rdf:RDF>
      <cc:Work
         rdf:about="">
        <dc:format>image/svg+xml</dc:format>
        <dc:type
           rdf:resource="http://purl.org/dc/dcmitype/StillImage" />
        <dc:title></dc:title>
      </cc:Work>
    </rdf:RDF>
  </metadata>
  <g
     inkscape:label="Layer 1"
     inkscape:groupmode="layer"
     id="layer1"
     transform="translate(0,-1014.3622)">
    <path
       style="color:#000000;fill:url(#linearGradient3730);fill-opacity:1;fill-rule:nonzero;stroke:none;stroke-width:0.50000000000000000;marker:none;visibility:visible;display:inline;overflow:visible;enable-background:accumulate"
       d="M 7 8 C 6.4477153 8 6 8.4477153 6 9 L 6 11 L 5 11 L 5 31 L 19 31 L 19 11 L 18 11 L 18 9 C 18 8.4477153 17.552285 8 17 8 L 7 8 z M 8 10 L 16 10 L 16 11 L 8 11 L 8 10 z M 2 11 C 0.892 11 0 11.928058 0 13.0625 L 0 28.9375 C 0 30.071942 0.892 31 2 31 L 3 31 L 3 11 L 2 11 z M 21 11 L 21 31 L 22 31 C 23.108 31 24 30.071942 24 28.9375 L 24 13.0625 C 24 11.928058 23.108 11 22 11 L 21 11 z "
       transform="translate(0,1014.3622)"
       id="rect2820" />
    <path
       sodipodi:type="inkscape:offset"
       inkscape:radius="-0.63539809"
       inkscape:original="M 7 1022.375 C 6.4477153 1022.375 6 1022.8227 6 1023.375 L 6 1025.375 L 5 1025.375 L 5 1045.375 L 19 1045.375 L 19 1025.375 L 18 1025.375 L 18 1023.375 C 18 1022.8227 17.552285 1022.375 17 1022.375 L 7 1022.375 z M 8 1024.375 L 16 1024.375 L 16 1025.375 L 8 1025.375 L 8 1024.375 z M 2 1025.375 C 0.892 1025.375 0 1026.3031 0 1027.4375 L 0 1043.3125 C 0 1044.4469 0.892 1045.375 2 1045.375 L 3 1045.375 L 3 1025.375 L 2 1025.375 z M 21 1025.375 L 21 1045.375 L 22 1045.375 C 23.108 1045.375 24 1044.4469 24 1043.3125 L 24 1027.4375 C 24 1026.3031 23.108 1025.375 22 1025.375 L 21 1025.375 z "
       style="opacity:0.1;color:#000000;fill:#ffffff;fill-opacity:1;fill-rule:nonzero;stroke:none;stroke-width:0.5;marker:none;visibility:visible;display:inline;overflow:visible;enable-background:accumulate"
       id="path3774"
       d="m 7,1023 c -0.2089017,0 -0.375,0.1661 -0.375,0.375 l 0,2 A 0.63546163,0.63546163 0 0 1 6,1026 l -0.375,0 0,18.75 12.75,0 0,-18.75 -0.375,0 a 0.63546163,0.63546163 0 0 1 -0.625,-0.625 l 0,-2 C 17.375,1023.1661 17.208902,1023 17,1023 l -10,0 z m 0.84375,0.75 a 0.63546163,0.63546163 0 0 1 0.15625,0 l 8,0 a 0.63546163,0.63546163 0 0 1 0.625,0.625 l 0,1 A 0.63546163,0.63546163 0 0 1 16,1026 l -8,0 a 0.63546163,0.63546163 0 0 1 -0.625,-0.625 l 0,-1 a 0.63546163,0.63546163 0 0 1 0.46875,-0.625 z M 2,1026 c -0.7531787,0 -1.375,0.6362 -1.375,1.4375 l 0,15.875 c 0,0.8013 0.6218213,1.4375 1.375,1.4375 l 0.375,0 0,-18.75 -0.375,0 z m 19.625,0 0,18.75 0.375,0 c 0.753179,0 1.375,-0.6362 1.375,-1.4375 l 0,-15.875 C 23.375,1026.6362 22.753179,1026 22,1026 l -0.375,0 z" />
  </g>
</svg>
